<svg width="715" height="718" viewBox="0 0 715 718" fill="none" xmlns="http://www.w3.org/2000/svg">
<path fill-rule="evenodd" clip-rule="evenodd" d="M715 718C715 718 583.753 716.462 521.445 657.526C459.137 598.591 459.653 471.139 326.809 478.107C193.966 485.075 52.0071 456.569 102.409 376.286C152.811 296.002 270.536 305.954 298.673 175.094C326.809 44.2347 96.4371 202.259 58.3874 115.246C43.5286 81.2658 78.796 76.685 24.1143 38.4564C5.9611 25.7653 -2.8172 7.3759 0.802121 0.227893C2.54628 -3.21675 8.72623 1.80642 15.1713 0.227893C35.6384 -4.78487 78.9329 0.227893 122.813 0.227893C264.527 0.227893 715 0.227893 715 0.227893V718Z" fill="url(#paint0_linear_0_227)"/>
<defs>
<linearGradient id="paint0_linear_0_227" x1="555.135" y1="-433.769" x2="-306.366" y2="169.616" gradientUnits="userSpaceOnUse">
<stop stop-color="white" stop-opacity="0.01"/>
<stop offset="1" stop-color="#C9F0FF"/>
</linearGradient>
</defs>
</svg>
