<svg width="375" height="718" viewBox="0 0 375 718" fill="none" xmlns="http://www.w3.org/2000/svg">
<rect width="375" height="721" transform="matrix(1 0 0 -1 0 718)" fill="#EDFBFF"/>
<path fill-rule="evenodd" clip-rule="evenodd" d="M-40 321C-40 321 -18.3238 239.93 47.7767 259.383C113.877 278.837 113.877 278.128 159.096 245.305C172.659 235.46 164.22 188.9 143.887 187.374C123.554 185.848 139.081 152.313 174.09 145.733C209.099 139.154 164.69 92.6959 138.043 79.1941C110.369 65.1723 145.917 28.2608 148.663 14.1641C155.348 -20.1641 -40 14.1641 -40 14.1641V321Z" fill="url(#paint0_linear_0_3)"/>
<path fill-rule="evenodd" clip-rule="evenodd" d="M375 535C375 535 335.718 534.086 317.069 499.052C298.42 464.018 298.574 388.255 258.814 392.397C219.054 396.539 176.566 379.594 191.651 331.87C206.736 284.146 241.972 290.061 250.393 212.273C258.814 134.484 189.864 228.421 178.475 176.696C174.028 156.497 184.584 153.774 168.217 131.049C162.784 123.505 160.157 112.573 161.24 108.324C161.24 108.324 166.288 0.938348 168.217 3.09944e-06C174.343 -2.9798 182.633 -2 195.766 -2C238.181 -2 375 3.09944e-06 375 3.09944e-06V535Z" fill="url(#paint1_linear_0_3)"/>
<rect x="43" y="634.686" width="16" height="16" rx="1.26316" transform="rotate(45 43 634.686)" fill="url(#paint2_linear_0_3)"/>
<path opacity="0.543387" fill-rule="evenodd" clip-rule="evenodd" d="M57.2213 455.103C58.7783 454.075 60.8407 455.265 60.7289 457.128L59.612 475.735C59.5112 477.416 57.6775 478.402 56.2199 477.561L41.7806 469.224C40.3229 468.382 40.2605 466.301 41.6651 465.374L57.2213 455.103Z" stroke="url(#paint3_linear_0_3)" stroke-width="4.5283"/>
<defs>
<linearGradient id="paint0_linear_0_3" x1="-206.286" y1="197.763" x2="179.701" y2="407.805" gradientUnits="userSpaceOnUse">
<stop stop-color="white" stop-opacity="0.01"/>
<stop offset="1" stop-color="#C9F0FF"/>
</linearGradient>
<linearGradient id="paint1_linear_0_3" x1="327.152" y1="-324.274" x2="-29.0578" y2="-224.185" gradientUnits="userSpaceOnUse">
<stop stop-color="white" stop-opacity="0.01"/>
<stop offset="1" stop-color="#C9F0FF"/>
</linearGradient>
<linearGradient id="paint2_linear_0_3" x1="71.253" y1="648.381" x2="57.3284" y2="635.724" gradientUnits="userSpaceOnUse">
<stop stop-color="white" stop-opacity="0.01"/>
<stop offset="1" stop-color="#C9F0FF"/>
</linearGradient>
<linearGradient id="paint3_linear_0_3" x1="13.0899" y1="488.598" x2="58.7405" y2="487.736" gradientUnits="userSpaceOnUse">
<stop stop-color="white" stop-opacity="0.01"/>
<stop offset="1" stop-color="#C9F0FF"/>
</linearGradient>
</defs>
</svg>
